<svg id="Layer_1" data-name="Layer 1" xmlns="http://www.w3.org/2000/svg" viewBox="0 0 985.439 684.467">
  <path d="M4.4,684.467H985.439c-10.75-27.413-30.6-50.668-58.586-57.567-40.936-10.079-84.258,17.635-125.1,7.214-23.206-5.913-41.475-23.148-60.672-37.459-72.425-54-171.674-69.956-257.374-41.376-44.8,14.932-85.614,41.045-131.5,52.147-59.339,14.361-121.393,2.451-182.417.489C110.352,606.005,25.2,630.221,4.4,684.467Z" fill="#f3f5fd"></path>
  <rect x="165.552" width="621.087" height="449.786" fill="#dee8f5"></rect>
  <rect x="300.656" y="77.143" width="355.161" height="326.736" fill="#fff"></rect>
  <g>
    <polygon points="617.541 207.531 553.043 143.033 403.43 143.033 450.149 207.531 617.541 207.531" fill="#f3f5fd"></polygon>
    <polyline points="338.932 207.531 403.43 143.033 467.928 207.531" fill="#c1d8ed"></polyline>
    <rect x="338.932" y="207.531" width="128.996" height="106.086" fill="#c1d8ed"></rect>
    <rect x="467.928" y="207.531" width="149.613" height="106.086" transform="translate(1085.469 521.148) rotate(180)" fill="#dee8f5"></rect>
    <rect x="379.514" y="249.893" width="47.832" height="63.724" fill="#fff"></rect>
    <rect x="338.932" y="313.617" width="278.608" height="41.595" fill="#c1d8ed"></rect>
    <g>
      <rect x="499.702" y="135.03" width="32.098" height="36.878" fill="#dee8f5"></rect>
      <rect x="499.702" y="135.03" width="32.098" height="11.437" fill="#c1d8ed"></rect>
      <rect x="494.921" y="125.81" width="41.659" height="13.659" fill="#dee8f5"></rect>
    </g>
    <polygon points="366.022 313.617 366.022 327.482 354.671 327.482 354.671 341.347 344.194 341.347 344.194 355.212 393.007 355.212 393.007 341.347 403.485 341.347 403.485 327.482 414.835 327.482 414.835 313.617 366.022 313.617" fill="#dee8f5"></polygon>
    <g>
      <rect x="485.412" y="238.835" width="47.483" height="47.483" fill="#fff"></rect>
      <rect x="552.573" y="238.835" width="47.483" height="47.483" fill="#fff"></rect>
      <rect x="483.772" y="281.755" width="50.763" height="4.564" fill="#c1d8ed"></rect>
      <rect x="550.933" y="281.755" width="50.763" height="4.564" fill="#c1d8ed"></rect>
    </g>
  </g>
  <rect x="165.552" width="621.087" height="37.051" fill="#c1d8ed"></rect>
  <circle cx="765.838" cy="18.526" r="9.296" fill="#fff"></circle>
  <g>
    <rect x="414.704" y="269.454" width="54.902" height="11.454" transform="matrix(0.423, -0.906, 0.906, 0.423, 5.684, 559.291)" fill="#0F1330"></rect>
    <path d="M462.909,259.4a32.665,32.665,0,0,1-5.135-.408,32.221,32.221,0,1,1,36.886-26.754h0A32.237,32.237,0,0,1,462.909,259.4Zm-.081-53a20.768,20.768,0,1,0,20.52,24.034h0a20.776,20.776,0,0,0-20.52-24.034Z" fill="#0F1330"></path>
  </g>
  <g>
    <path d="M376.968,673.648l-20.854-2.48c.939-7.893,2-17.373,2.073-18.928,0,.1,0,.182,0,.245h21C379.182,653.115,379.182,655.03,376.968,673.648Z" fill="#E98862"></path>
    <path d="M293.292,676.158l-21-.068s.07-21.685.07-23.605h21C293.362,654.411,293.292,676.158,293.292,676.158Z" fill="#E98862"></path>
    <path d="M347.72,667.017l36.995-.63c-1.738-44.032-1.844-90.219-2.386-134.357-7.221-47.574-11.023-99.816-19.935-147.049l-.267.079-.782-5.33-76.077-4.7s-2.2,37.281-2.96,49.7C278.6,485.02,271.4,596.687,266.88,665.825l36.869,3.115c6.642-67.786,14.922-166.556,21.245-237.766,7.261,34.669,14.2,70.567,20.514,104.939C346.771,579.139,347.839,624.119,347.72,667.017Z" fill="#262626"></path>
    <path d="M318.821,684.28a4.108,4.108,0,0,0,4.076-4.427h0a4.107,4.107,0,0,0-2.659-3.529L295.8,668.138a3.459,3.459,0,0,0-2.873.319,19.108,19.108,0,0,1-11.467,3.4,17.035,17.035,0,0,1-8.821-3.222,1.546,1.546,0,0,0-2.527,1.2v11.952a2.678,2.678,0,0,0,2.689,2.678Z" fill="#c1d8ed"></path>
    <path d="M402.554,684.28a4.107,4.107,0,0,0,4.076-4.427h0a4.108,4.108,0,0,0-2.658-3.529l-24.443-8.186a3.457,3.457,0,0,0-2.872.319,19.112,19.112,0,0,1-11.468,3.4,17.031,17.031,0,0,1-8.82-3.222,1.547,1.547,0,0,0-2.528,1.2v11.952a2.678,2.678,0,0,0,2.689,2.678Z" fill="#c1d8ed"></path>
    <g>
      <g>
        <path d="M308.873,270.413s8.041-3.454,8.041-24.581l16.165-1.647s-3.332,18.668,4.234,25.3Z" fill="#E98862"></path>
        <path d="M308.547,236.953c.58,6.458,3.56,12.772,9.008,15.289a40.5,40.5,0,0,0,19.079,4.189c17.549,0,17.35-39.918,9.706-48.295s-32.332-5.493-36.343,7.141C307.923,221.812,308,230.807,308.547,236.953Z" fill="#E98862"></path>
      </g>
      <path d="M345.416,224.35a66.966,66.966,0,0,0,10.167-.858s-1.029-25.922-28.559-24.444a51.3,51.3,0,0,0-10.687.63c-8.275,1.269-20.006,9.729-21.9,30.9-.868,9.713-4.216,18.869-6.771,24.666a4.473,4.473,0,0,0,4.084,6.286l58.979-.468a4.465,4.465,0,0,0,4.28-5.758C351.8,244.678,345.936,238.166,345.416,224.35Z" fill="#0f1011"></path>
    </g>
    <g>
      <path d="M262.878,411.067c0,2.981,1.574,12.943-.957,13.655-1.517.427-3.31-7-3.31-7" fill="#E98862"></path>
      <path d="M250.931,409.5s-8.264,20.114,1.162,31.669a1.888,1.888,0,0,0,3.346-1.081c.458-7.791,2.029-23.8,7.166-21.925V405.6" fill="#E98862"></path>
    </g>
    <path d="M437.272,302.339s11.8-14.371,13.265-17.429c5.175-10.768,2.589-15.7.434-17.276-2.543-1.865-14.335,13.982-14.335,13.982s1.023-5.7-1.185-6.075c-.908-.154-1.627.737-3.047,4.772-1.618,4.6-4.851,11.515-4.851,11.515Z" fill="#E98862"></path>
    <path d="M425.122,290.15l-34.138,38.407-26.7-47.794c-2.528-7.551-8.283-12.609-20.023-13.113-4.014-.172-23.606-.2-37.949-.2-9.637,0-17.548,2.957-22.116,7.526a20.144,20.144,0,0,0-5.021,8.129l-.138-.051-22.953,62.415a10.942,10.942,0,0,0-.552,2.162l-9.264,62.415,21.568,3.2,9.1-61.306,9.269-25.206a53.3,53.3,0,0,1,1.573,11.837c0,21-9.5,30.418-8.8,41.195,1.1,16.945,83.428,12.942,87.623,3.317,4.32-9.927-4.447-16.042-4.063-48.51.041-3.533.315-7.23.69-10.993l16.2,29a10.9,10.9,0,0,0,17.666,1.926L441.978,302Z" fill="#1F2D50"></path>
  </g>
  <path d="M73.406,678.118C53.6,671.98,34.384,663.959,16.875,641.509c-3.593-4.6-6.97-10.494-5-16,1.482-4.144,5.769-6.8,10.124-7.477a21.017,21.017,0,0,1,4.9-.134c.008,0,.016,0,.019,0a41.248,41.248,0,0,1,7.413,1.454l.692.2A122.091,122.091,0,0,1,67.689,634.3a4.811,4.811,0,0,0,6.7-6.55,29.179,29.179,0,0,0-3.58-4.7,46.272,46.272,0,0,0-6.514-5.648c-3.114-2.272-6.436-4.3-9.687-6.374a268.229,268.229,0,0,1-34.24-25.875C12.729,578.35,5.258,570.8,1.626,561.228c-1.668-4.4-2.427-9.473-.437-13.737,3.284-7,12.587-8.962,20.194-7.509,13.329,2.553,23.978,12.324,33.421,22.063C62.635,570.138,71.41,579.1,82.661,579.6a9.85,9.85,0,0,0,5.546-1.112c3.21-1.944,4.035-6.448,2.891-10.024s-3.791-6.433-6.346-9.178C69.9,543.35,55.287,526.776,45.644,507.254s-13.915-42.572-7.214-63.3C40.394,437.9,43.346,432,47.952,427.6s11.063-7.162,17.385-6.319c8.613,1.134,15.1,8.4,19.464,15.908C99.8,462.941,98.884,494.5,103.109,524c1.182,8.259,2.9,16.729,7.82,23.528a5.562,5.562,0,0,0,1.726,1.609c4.048,2.344,7.68-2.382,9.2-6.393,6-15.869,7.5-34.017,18.242-47.151,4.1-5,9.9-9.179,16.365-9.138,7.9.054,14.655,6.649,16.959,14.2s.925,15.757-1.543,23.256c-4.582,13.906-12.795,26.4-22.472,37.379-5.1,5.8-10.871,11.656-12.4,19.219a15.328,15.328,0,0,0,4.813,14.133,8.98,8.98,0,0,0,6.654,2.176c2.592-.237,4.936-1.559,7.2-2.844.948-.54,1.9-1.088,2.857-1.625q5.659-3.222,11.321-6.453c9.595-5.474,21.182-11.067,31.176-6.353,5.1,2.41,8.441,7.149,10.013,12.586a27.541,27.541,0,0,1,0,15.1c-2.977,10.263-21.741,38.822-29.48,46.187C172.518,662.013,141.174,699.121,73.406,678.118Z" fill="#8ddbe0"></path>
  <g>
    <g>
      <g>
        <path d="M849.924,528.076,818.435,681.661a3.712,3.712,0,0,1-3.6,2.806h0a3.71,3.71,0,0,1-3.6-4.614L843.175,524.5Z" fill="#c1d8ed"></path>
        <path d="M923.906,527.831,955.4,681.415a3.712,3.712,0,0,0,3.6,2.807h0a3.71,3.71,0,0,0,3.6-4.614L930.655,524.249Z" fill="#c1d8ed"></path>
      </g>
      <rect x="810.41" y="513.054" width="153.01" height="26.962" rx="6.417" fill="#dee8f5"></rect>
    </g>
    <g>
      <path d="M927.876,417.118c-5.675-1.858-11.5.227-17.073,4.467,7.34-18.538,10.37-35.281-2.179-36.035-8.782-.528-15.508,6.209-20.619,15.788-1.8-16.841-6.435-29.4-16.821-25.237-11.4,4.572-13.138,20.24-11.408,36.632-5.024-8.373-10.433-13.041-15.345-8.131-14.658,14.658,21.321,55.967,21.321,55.967h8.935l5.1,5.537c-1.032,2.181-1.6,3.481-1.6,3.481l6.477,13.181S951.431,424.828,927.876,417.118Z" fill="#8ddbe0"></path>
      <polygon points="911.856 512.286 861.287 512.286 852.821 453.251 920.321 453.251 911.856 512.286" fill="#c1d8ed"></polygon>
    </g>
  </g>
</svg>